<svg xmlns="http://www.w3.org/2000/svg" version="1.1" xmlns:xlink="http://www.w3.org/1999/xlink" xmlns:svgjs="http://svgjs.com/svgjs" width="1920" height="1080" preserveAspectRatio="none" viewBox="0 0 1920 1080"><g mask="url(&quot;#SvgjsMask1024&quot;)" fill="none"><rect width="1920" height="1080" x="0" y="0" fill="#0e2a47"></rect><path d="M50 1080L1130 0L1254.5 0L174.5 1080z" fill="url(#SvgjsLinearGradient1025)"></path><path d="M663.6 1080L1743.6 0L2331.6 0L1251.6 1080z" fill="url(#SvgjsLinearGradient1025)"></path><path d="M1902 1080L822 0L268.5 0L1348.5 1080z" fill="url(#SvgjsLinearGradient1026)"></path><path d="M1172.4 1080L92.40000000000009 0L-293.0999999999999 0L786.9000000000001 1080z" fill="url(#SvgjsLinearGradient1026)"></path><path d="M1315.6530109070513 1080L1920 475.6530109070512L1920 1080z" fill="url(#SvgjsLinearGradient1025)"></path><path d="M0 1080L604.3469890929488 1080L 0 475.6530109070512z" fill="url(#SvgjsLinearGradient1026)"></path></g><defs><mask id="SvgjsMask1024"><rect width="1920" height="1080" fill="#ffffff"></rect></mask><linearGradient x1="0%" y1="100%" x2="100%" y2="0%" id="SvgjsLinearGradient1025"><stop stop-color="rgba(15, 70, 185, 0.2)" offset="0"></stop><stop stop-opacity="0" stop-color="rgba(15, 70, 185, 0.2)" offset="0.66"></stop></linearGradient><linearGradient x1="100%" y1="100%" x2="0%" y2="0%" id="SvgjsLinearGradient1026"><stop stop-color="rgba(15, 70, 185, 0.2)" offset="0"></stop><stop stop-opacity="0" stop-color="rgba(15, 70, 185, 0.2)" offset="0.66"></stop></linearGradient></defs></svg>